name Walk4.mot
datacolumns 19
datarows 15
range 3.57200000 3.58600000
endheader

                time	   L_ground_force_vx	   L_ground_force_vy	   L_ground_force_vz	   L_ground_force_px	   L_ground_force_py	   L_ground_force_pz	   R_ground_force_vx	   R_ground_force_vy	   R_ground_force_vz	   R_ground_force_px	   R_ground_force_py	   R_ground_force_pz	   L_ground_torque_x	   L_ground_torque_y	   L_ground_torque_z	   R_ground_torque_x	   R_ground_torque_y	   R_ground_torque_z	
          3.57200000	          0.08996730	          0.22494528	          0.00145893	         -0.00021848	          0.00000000	         -0.00006379	        -16.08791004	        779.20393060	        -60.00660157	          0.20942158	          0.00000000	          0.12098115	          0.00000000	          0.00043780	          0.00000000	          0.00000000	         12.03331305	          0.00000000	
          3.57300000	          0.08561678	          0.21667191	          0.00119961	         -0.00024506	          0.00000000	         -0.00007516	        -15.79651211	        777.49270968	        -59.86118445	          0.20979258	          0.00000000	          0.12107524	          0.00000000	          0.00044818	          0.00000000	          0.00000000	         11.95511886	          0.00000000	
          3.57400000	          0.08131264	          0.20828322	          0.00095781	         -0.00026846	          0.00000000	         -0.00008527	        -15.50744288	        775.78204276	        -59.71983335	          0.21016366	          0.00000000	          0.12116958	          0.00000000	          0.00045598	          0.00000000	          0.00000000	         11.87747603	          0.00000000	
          3.57500000	          0.07706719	          0.19982072	          0.00073295	         -0.00028885	          0.00000000	         -0.00009420	        -15.22076134	        774.07246002	        -59.58254413	          0.21053481	          0.00000000	          0.12126417	          0.00000000	          0.00046140	          0.00000000	          0.00000000	         11.80039952	          0.00000000	
          3.57600000	          0.07289148	          0.19132267	          0.00052443	         -0.00030641	          0.00000000	         -0.00010202	        -14.93651856	        772.36450313	        -59.44930223	          0.21090600	          0.00000000	          0.12135903	          0.00000000	          0.00046461	          0.00000000	          0.00000000	         11.72390305	          0.00000000	
          3.57700000	          0.06879538	          0.18282418	          0.00033166	         -0.00032133	          0.00000000	         -0.00010878	        -14.65475604	        770.65872489	        -59.32008262	          0.21127723	          0.00000000	          0.12145418	          0.00000000	          0.00046579	          0.00000000	          0.00000000	         11.64799944	          0.00000000	
          3.57800000	          0.06478757	          0.17435743	          0.00015403	         -0.00033376	          0.00000000	         -0.00011456	        -14.37550462	        768.95568967	        -59.19484990	          0.21164847	          0.00000000	          0.12154963	          0.00000000	          0.00046511	          0.00000000	          0.00000000	         11.57270090	          0.00000000	
          3.57900000	          0.06087571	          0.16595169	         -0.00000908	         -0.00034387	          0.00000000	         -0.00011942	        -14.09878443	        767.25597524	        -59.07355867	          0.21201967	          0.00000000	          0.12164538	          0.00000000	          0.00046273	          0.00000000	          0.00000000	         11.49801898	          0.00000000	
          3.58000000	          0.05706642	          0.15763356	         -0.00015829	         -0.00035183	          0.00000000	         -0.00012341	        -13.82460564	        765.56017563	        -58.95615419	          0.21239081	          0.00000000	          0.12174144	          0.00000000	          0.00045880	          0.00000000	          0.00000000	         11.42396432	          0.00000000	
          3.58100000	          0.05336537	          0.14942700	         -0.00029421	         -0.00035778	          0.00000000	         -0.00012659	        -13.55296991	        763.86890429	        -58.84257328	          0.21276186	          0.00000000	          0.12183781	          0.00000000	          0.00045348	          0.00000000	          0.00000000	         11.35054629	          0.00000000	
          3.58200000	          0.04977735	          0.14135355	         -0.00041746	         -0.00036187	          0.00000000	         -0.00012903	        -13.28387175	        762.18279658	        -58.73274542	          0.21313279	          0.00000000	          0.12193448	          0.00000000	          0.00044689	          0.00000000	          0.00000000	         11.27777248	          0.00000000	
          3.58300000	          0.04630629	          0.13343240	         -0.00052866	         -0.00036425	          0.00000000	         -0.00013077	        -13.01729912	        760.50251115	        -58.62659355	          0.21350355	          0.00000000	          0.12203146	          0.00000000	          0.00043918	          0.00000000	          0.00000000	         11.20564846	          0.00000000	
          3.58400000	          0.04295538	          0.12568053	         -0.00062841	         -0.00036504	          0.00000000	         -0.00013187	        -12.75323324	        758.82872980	        -58.52403455	          0.21387413	          0.00000000	          0.12212873	          0.00000000	          0.00043046	          0.00000000	          0.00000000	         11.13417771	          0.00000000	
          3.58500000	          0.03972706	          0.11811284	         -0.00071730	         -0.00036439	          0.00000000	         -0.00013238	        -12.49164783	        757.16215612	        -58.42497944	          0.21424449	          0.00000000	          0.12222629	          0.00000000	          0.00042086	          0.00000000	          0.00000000	         11.06336181	          0.00000000	
          3.58600000	          0.03662310	          0.11074226	         -0.00079592	         -0.00036242	          0.00000000	         -0.00013234	        -12.23250865	        755.50351308	        -58.32933323	          0.21461461	          0.00000000	          0.12232413	          0.00000000	          0.00041048	          0.00000000	          0.00000000	         10.99320067	          0.00000000	
